<svg width="500" height="500" viewBox="0 0 500 500" fill="none" xmlns="http://www.w3.org/2000/svg">
<rect width="500" height="500" fill="white"/>
<path d="M65.4688 174.281C68.6354 174.281 71.875 173.562 75.1875 172.125C78.5208 170.667 81.1562 168.531 83.0938 165.719C83.0938 165.448 82.9688 165.219 82.7188 165.031C82.4896 164.844 82.2292 164.75 81.9375 164.75C78.8125 168.542 74.2188 170.438 68.1562 170.438C61.7604 170.438 56.9271 168.51 53.6562 164.656C50.4062 160.781 48.7812 155.969 48.7812 150.219C48.7812 147.615 49.0625 145.104 49.625 142.688C50.2083 140.25 51.1042 137.927 52.3125 135.719C53.5417 133.49 55.2812 131.688 57.5312 130.312C59.8021 128.938 62.4479 128.25 65.4688 128.25C67.5312 128.25 69.4375 128.573 71.1875 129.219C72.9375 129.865 74.375 130.625 75.5 131.5C76.625 132.375 77.7188 133.552 78.7812 135.031C79.8646 136.49 80.6771 137.76 81.2188 138.844C81.7812 139.906 82.4479 141.26 83.2188 142.906C83.8438 142.823 84.2292 142.594 84.375 142.219C82.8333 136.031 80.5 131.792 77.375 129.5C74.2708 127.188 70.3021 126.031 65.4688 126.031C63.5104 126.031 61.5104 126.271 59.4688 126.75C57.4271 127.208 55.3229 128.042 53.1562 129.25C51.0104 130.438 49.1146 131.917 47.4688 133.688C45.8229 135.438 44.4688 137.75 43.4062 140.625C42.3438 143.479 41.8125 146.677 41.8125 150.219C41.8125 153.76 42.3438 156.958 43.4062 159.812C44.4688 162.667 45.8229 164.969 47.4688 166.719C49.1146 168.469 51.0104 169.938 53.1562 171.125C55.3229 172.292 57.4271 173.104 59.4688 173.562C61.5104 174.042 63.5104 174.281 65.4688 174.281ZM82.4375 144.312C81.5417 142.312 80.7188 140.667 79.9688 139.375C79.2188 138.062 78.2188 136.604 76.9688 135C75.7188 133.375 74.2292 132.115 72.5 131.219C70.7708 130.323 68.8333 129.781 66.6875 129.594C64.3125 129.781 62.2396 130.542 60.4688 131.875C58.6979 133.188 57.3229 134.875 56.3438 136.938C55.3854 139 54.6771 141.146 54.2188 143.375C53.7812 145.583 53.5625 147.865 53.5625 150.219C53.5625 155.469 54.8854 159.875 57.5312 163.438C60.1771 167 64.125 168.906 69.375 169.156C74.4583 168.906 78.4479 167.01 81.3438 163.469C82.1562 163.469 82.8646 163.74 83.4688 164.281C84.0729 164.802 84.375 165.427 84.375 166.156C82.2708 169.219 79.4271 171.552 75.8438 173.156C72.2604 174.76 68.8021 175.562 65.4688 175.562C63.3854 175.562 61.2708 175.312 59.125 174.812C57 174.333 54.7917 173.479 52.5 172.25C50.2292 171 48.2188 169.448 46.4688 167.594C44.7188 165.74 43.2917 163.312 42.1875 160.312C41.0833 157.292 40.5312 153.927 40.5312 150.219C40.5312 146.344 41.1042 142.885 42.25 139.844C43.3958 136.781 44.8646 134.333 46.6562 132.5C48.4479 130.667 50.5417 129.146 52.9375 127.938C55.3333 126.708 57.6562 125.875 59.9062 125.438C62.1771 124.979 64.4583 124.75 66.75 124.75C69.875 124.75 73.2708 125.167 76.9375 126C80.6042 126.833 83.2292 127.354 84.8125 127.562C84.125 130.25 83.8542 132.615 84 134.656C84.1458 136.677 84.7396 139.156 85.7812 142.094C85.1771 143.323 84.0625 144.062 82.4375 144.312ZM140.706 168.719C140.706 170.26 138.3 171.26 133.488 171.719C133.321 172.052 133.321 172.542 133.488 173.188C137.029 173.062 140.654 173 144.363 173C148.8 173 153.071 173.062 157.175 173.188C157.342 172.812 157.342 172.323 157.175 171.719C150.258 171.302 146.779 170.302 146.738 168.719C146.508 163.552 146.394 157.365 146.394 150.156C146.394 142.906 146.508 136.698 146.738 131.531C146.779 129.948 150.258 128.948 157.175 128.531C157.383 128.01 157.383 127.521 157.175 127.062C151.696 127.229 147.425 127.312 144.363 127.312C141.8 127.312 138.175 127.229 133.488 127.062C133.363 127.562 133.363 128.052 133.488 128.531C138.258 128.99 140.665 129.99 140.706 131.531C140.831 135.365 140.935 141.146 141.019 148.875C137.185 149 133.56 149.062 130.144 149.062C124.435 149.062 120.3 149.021 117.738 148.938C117.738 141.938 117.863 136.135 118.113 131.531C118.154 129.948 121.633 128.948 128.55 128.531C128.675 128.135 128.675 127.646 128.55 127.062C123.092 127.229 118.821 127.312 115.738 127.312C113.196 127.312 109.571 127.229 104.863 127.062C104.696 127.438 104.696 127.927 104.863 128.531C109.654 128.99 112.071 129.99 112.113 131.531C112.321 136.427 112.425 142.25 112.425 149C112.425 155.604 112.3 162.177 112.05 168.719C112.008 170.26 109.592 171.26 104.8 171.719C104.633 172.052 104.633 172.542 104.8 173.188C108.342 173.062 111.967 173 115.675 173C120.113 173 124.383 173.062 128.488 173.188C128.654 172.854 128.654 172.365 128.488 171.719C121.571 171.302 118.092 170.302 118.05 168.719C117.842 162.448 117.738 156.583 117.738 151.125C122.863 151.021 126.998 150.969 130.144 150.969C133.56 150.969 137.185 151.042 141.019 151.188C140.977 155.833 140.873 161.677 140.706 168.719ZM139.425 168.719C139.592 160.427 139.696 155.198 139.738 153.031C135.654 152.948 132.456 152.906 130.144 152.906C128.352 152.906 126.675 152.917 125.113 152.938C123.571 152.958 122.717 152.969 122.55 152.969C122.55 157.781 122.654 163.01 122.863 168.656C122.863 168.781 122.904 168.906 122.988 169.031C123.071 169.156 123.217 169.26 123.425 169.344C123.633 169.427 123.842 169.521 124.05 169.625C124.279 169.708 124.56 169.792 124.894 169.875C125.248 169.958 125.56 170.031 125.831 170.094C126.102 170.156 126.446 170.219 126.863 170.281C127.3 170.344 127.644 170.396 127.894 170.438C128.165 170.479 128.519 170.521 128.956 170.562C129.415 170.604 129.727 170.646 129.894 170.688C130.227 171.854 130.165 173.135 129.706 174.531C122.019 174.365 117.342 174.281 115.675 174.281C114.571 174.281 110.654 174.365 103.925 174.531C103.404 173.094 103.404 171.75 103.925 170.5C108.446 170.042 110.727 169.427 110.769 168.656C111.019 162.115 111.144 155.562 111.144 149C111.144 142.292 111.04 136.49 110.831 131.594C110.79 130.823 108.467 130.208 103.863 129.75C103.508 128.417 103.55 127.073 103.988 125.719C105.821 125.719 108.3 125.771 111.425 125.875C114.571 125.979 116.758 126.031 117.988 126.031C118.883 126.031 120.613 126.01 123.175 125.969C125.738 125.927 127.956 125.906 129.831 125.906C130.206 127.094 130.227 128.375 129.894 129.75C125.29 130.208 122.967 130.823 122.925 131.594C122.675 137.344 122.55 142.719 122.55 147.719C124.55 147.844 127.081 147.865 130.144 147.781L139.738 147.656C139.654 140.865 139.55 135.51 139.425 131.594C139.383 130.823 137.06 130.208 132.456 129.75C132.081 128.292 132.123 126.948 132.581 125.719C135.602 125.927 139.696 126.031 144.863 126.031C145.842 126.031 147.831 126.01 150.831 125.969C153.852 125.927 156.383 125.906 158.425 125.906C158.821 127.094 158.852 128.375 158.519 129.75C153.894 130.208 151.56 130.823 151.519 131.594C151.31 136.76 151.206 142.948 151.206 150.156C151.206 157.323 151.31 163.49 151.519 168.656C151.56 169.427 153.894 170.042 158.519 170.5C158.852 171.833 158.8 173.177 158.363 174.531C151.633 174.365 147.717 174.281 146.613 174.281C144.946 174.281 140.269 174.365 132.581 174.531C132.081 173.094 132.081 171.75 132.581 170.5C137.144 170.042 139.425 169.448 139.425 168.719ZM202.85 127.312H187.131C184.527 127.312 180.871 127.229 176.163 127.062V128.531C180.954 128.99 183.371 129.99 183.413 131.531C183.621 136.427 183.725 142.25 183.725 149C183.725 155.604 183.6 162.177 183.35 168.719C183.308 170.26 180.892 171.26 176.1 171.719C176.017 172.448 176.017 172.938 176.1 173.188C180.121 173.062 189.465 173 204.131 173C209.256 173 213.11 172.125 215.694 170.375C218.277 168.625 220.61 165.615 222.694 161.344C222.527 161.01 222.163 160.74 221.6 160.531C217.808 167.573 210.819 171.094 200.631 171.094H189.35C189.142 161.99 189.038 155.333 189.038 151.125L199.225 151.062C200.121 151.062 200.954 151.208 201.725 151.5C202.517 151.792 203.142 152.094 203.6 152.406C204.079 152.698 204.631 153.271 205.256 154.125C205.881 154.979 206.319 155.604 206.569 156C206.819 156.375 207.256 157.167 207.881 158.375C208.506 159.583 208.923 160.365 209.131 160.719C209.777 160.448 210.183 160.167 210.35 159.875C208.267 156.333 207.225 153.073 207.225 150.094C207.225 148.802 207.517 147.229 208.1 145.375C208.704 143.521 209.454 141.823 210.35 140.281C210.183 139.99 209.777 139.719 209.131 139.469C208.965 139.76 208.631 140.385 208.131 141.344C207.652 142.302 207.329 142.927 207.163 143.219C207.017 143.49 206.715 144 206.256 144.75C205.819 145.5 205.475 146 205.225 146.25C204.975 146.5 204.6 146.875 204.1 147.375C203.621 147.854 203.152 148.188 202.694 148.375C202.256 148.542 201.735 148.698 201.131 148.844C200.527 148.99 199.892 149.062 199.225 149.062C194.746 149.062 191.35 149.021 189.038 148.938C189.038 143.896 189.163 137.323 189.413 129.219H199.35C209.538 129.219 216.527 132.74 220.319 139.781C220.881 139.573 221.246 139.292 221.413 138.938C219.329 134.688 216.996 131.688 214.413 129.938C211.829 128.188 207.975 127.312 202.85 127.312ZM207.163 140.5L208.506 137.875C210.256 138.5 211.36 139.302 211.819 140.281C210.881 141.906 210.09 143.667 209.444 145.562C208.819 147.438 208.506 148.948 208.506 150.094C208.506 152.865 209.61 156.125 211.819 159.875C211.319 160.938 210.256 161.75 208.631 162.312C207.86 161.042 207.298 160.062 206.944 159.375C206.09 157.958 205.413 156.906 204.913 156.219C204.433 155.51 203.704 154.802 202.725 154.094C201.746 153.385 200.663 153.01 199.475 152.969H193.85C193.85 157.573 193.933 163.188 194.1 169.812H200.569C205.86 169.812 210.163 168.781 213.475 166.719C216.808 164.635 219.329 162.031 221.038 158.906C222.788 159.552 223.892 160.365 224.35 161.344C221.621 165.865 220.006 170.177 219.506 174.281H193.569C185.34 174.281 179.225 174.344 175.225 174.469C174.788 173.115 174.767 171.792 175.163 170.5C179.725 170.042 182.027 169.427 182.069 168.656C182.319 162.115 182.444 155.562 182.444 149C182.444 142.292 182.34 136.49 182.131 131.594C182.09 130.823 179.767 130.208 175.163 129.75C174.767 128.292 174.808 126.948 175.288 125.719C181.683 125.927 185.923 126.031 188.006 126.031H218.225C218.725 130.115 220.35 134.417 223.1 138.938C222.621 139.938 221.506 140.75 219.756 141.375C218.048 138.271 215.527 135.688 212.194 133.625C208.881 131.542 204.579 130.5 199.288 130.5H194.163C193.954 137.979 193.85 143.719 193.85 147.719C195.163 147.76 197.058 147.781 199.538 147.781C201.288 147.781 202.683 147.198 203.725 146.031C204.767 144.844 205.913 143 207.163 140.5ZM289.837 127.062C284.108 127.229 280.608 127.312 279.337 127.312C277.837 127.312 274.744 127.229 270.056 127.062C269.931 127.521 269.931 128.01 270.056 128.531C272.223 128.656 273.723 128.844 274.556 129.094C275.39 129.344 275.806 129.854 275.806 130.625C275.806 131 275.681 131.302 275.431 131.531L257.712 148.625H255.525C255.525 142.938 255.65 137.24 255.9 131.531C255.942 129.948 259.421 128.948 266.337 128.531C266.462 128.135 266.462 127.646 266.337 127.062C260.879 127.229 256.619 127.312 253.556 127.312C250.994 127.312 247.358 127.229 242.65 127.062C242.483 127.438 242.483 127.927 242.65 128.531C247.442 128.99 249.858 129.99 249.9 131.531C250.108 136.427 250.212 142.25 250.212 149C250.212 155.604 250.087 162.177 249.837 168.719C249.796 170.26 247.379 171.26 242.587 171.719C242.421 172.052 242.421 172.542 242.587 173.188C246.129 173.062 249.765 173 253.494 173C257.931 173 262.192 173.062 266.275 173.188C266.442 172.854 266.442 172.365 266.275 171.719C259.358 171.302 255.879 170.302 255.837 168.719C255.629 162.219 255.525 156.417 255.525 151.312L258.025 151.25L273.244 167.062C274.369 168.25 274.931 169.094 274.931 169.594C274.931 170.323 274.598 170.854 273.931 171.188C273.265 171.5 271.931 171.677 269.931 171.719C269.765 172.365 269.765 172.854 269.931 173.188V173.25C274.535 173.083 278.483 173 281.775 173C286.587 173 290.462 173.062 293.4 173.188C293.546 172.729 293.546 172.24 293.4 171.719C288.546 171.552 284.65 170 281.712 167.062L262.431 147.531L279.275 131.531C280.379 130.76 281.608 130.156 282.962 129.719C284.337 129.26 285.462 128.979 286.337 128.875C287.212 128.771 288.379 128.656 289.837 128.531C289.962 128.01 289.962 127.521 289.837 127.062ZM291.494 129.75C286.494 130.083 282.91 131 280.744 132.5L266.4 146.188L286.056 166.094C288.994 169.031 291.921 170.562 294.837 170.688C295.171 172.062 295.171 173.344 294.837 174.531C289.192 174.198 280.587 174.198 269.025 174.531C268.608 173.344 268.546 172.062 268.837 170.688C272.046 170.604 273.65 170.24 273.65 169.594C273.65 169.385 269.212 164.677 260.337 155.469C260.337 159.344 260.442 163.74 260.65 168.656C260.65 168.781 260.702 168.906 260.806 169.031C260.91 169.156 261.056 169.26 261.244 169.344C261.452 169.427 261.66 169.521 261.869 169.625C262.077 169.708 262.358 169.792 262.712 169.875C263.087 169.958 263.4 170.031 263.65 170.094C263.9 170.156 264.233 170.219 264.65 170.281C265.087 170.344 265.431 170.396 265.681 170.438C265.952 170.479 266.306 170.521 266.744 170.562C267.202 170.604 267.515 170.646 267.681 170.688C267.994 172.062 267.931 173.344 267.494 174.531C259.806 174.365 255.14 174.281 253.494 174.281C252.369 174.281 248.442 174.365 241.712 174.531C241.192 173.094 241.192 171.75 241.712 170.5C246.233 170.042 248.515 169.427 248.556 168.656C248.806 163.448 248.931 156.896 248.931 149C248.931 142.292 248.827 136.49 248.619 131.594C248.577 130.823 246.254 130.208 241.65 129.75C241.296 128.375 241.337 127.031 241.775 125.719C243.608 125.719 246.087 125.771 249.212 125.875C252.358 125.979 254.546 126.031 255.775 126.031C256.671 126.031 258.337 126.01 260.775 125.969C263.212 125.927 265.369 125.906 267.244 125.906C267.619 127.094 267.64 128.375 267.306 129.75C262.952 130.167 260.754 130.781 260.712 131.594C260.504 135.906 260.379 140.146 260.337 144.312L274.525 130.625C274.525 130.292 272.754 130 269.212 129.75C268.796 128.333 268.817 127.01 269.275 125.781C276.837 126.115 284.244 126.156 291.494 125.906C291.827 127.094 291.827 128.375 291.494 129.75ZM323.138 168.719C322.971 160.01 322.888 153.438 322.888 149C322.888 143.875 322.992 138.052 323.2 131.531C323.242 129.948 326.721 128.948 333.638 128.531C333.763 128.135 333.763 127.646 333.638 127.062C328.179 127.229 323.919 127.312 320.856 127.312C318.294 127.312 314.658 127.229 309.95 127.062C309.783 127.438 309.783 127.927 309.95 128.531C314.742 128.99 317.158 129.99 317.2 131.531C317.408 136.427 317.513 142.25 317.513 149C317.513 155.604 317.388 162.177 317.138 168.719C317.096 170.26 314.679 171.26 309.888 171.719C309.721 172.052 309.721 172.542 309.888 173.188C313.429 173.062 317.065 173 320.794 173C325.231 173 329.492 173.062 333.575 173.188C333.742 172.854 333.742 172.365 333.575 171.719C326.658 171.302 323.179 170.302 323.138 168.719ZM308.95 129.75C308.596 128.375 308.638 127.031 309.075 125.719C310.908 125.719 313.388 125.771 316.513 125.875C319.658 125.979 321.846 126.031 323.075 126.031C323.971 126.031 325.7 126.01 328.263 125.969C330.825 125.927 333.044 125.906 334.919 125.906C335.315 127.094 335.335 128.375 334.981 129.75C330.377 130.208 328.054 130.823 328.013 131.594C327.763 136.802 327.638 143.375 327.638 151.312C327.638 158.979 327.742 164.76 327.95 168.656C327.95 168.781 328.002 168.906 328.106 169.031C328.21 169.156 328.356 169.26 328.544 169.344C328.752 169.427 328.96 169.521 329.169 169.625C329.377 169.708 329.658 169.792 330.013 169.875C330.388 169.958 330.7 170.031 330.95 170.094C331.2 170.156 331.533 170.219 331.95 170.281C332.388 170.344 332.731 170.396 332.981 170.438C333.252 170.479 333.606 170.521 334.044 170.562C334.502 170.604 334.815 170.646 334.981 170.688C335.335 171.854 335.273 173.135 334.794 174.531C327.106 174.365 322.44 174.281 320.794 174.281C319.669 174.281 315.742 174.365 309.013 174.531C308.492 173.094 308.492 171.75 309.013 170.5C313.533 170.042 315.815 169.427 315.856 168.656C316.106 163.448 316.231 156.896 316.231 149C316.231 142.292 316.127 136.49 315.919 131.594C315.877 130.823 313.554 130.208 308.95 129.75Z" fill="black"/>
</svg>
